<?xml version="1.0" encoding="utf-8"?>
<!-- Generator: Adobe Illustrator 17.0.0, SVG Export Plug-In . SVG Version: 6.00 Build 0)  -->
<!DOCTYPE svg PUBLIC "-//W3C//DTD SVG 1.1//EN" "http://www.w3.org/Graphics/SVG/1.1/DTD/svg11.dtd">
<svg version="1.1" id="Слой_1" xmlns="http://www.w3.org/2000/svg" xmlns:xlink="http://www.w3.org/1999/xlink" x="0px" y="0px"
	 width="450px" height="193px" viewBox="0 0 450 193" enable-background="new 0 0 450 193" xml:space="preserve">
<g>
	<path fill="#91824F" d="M108.691,114.162h22.383v26.01h-22.383v40.851h23.499v6.161H42.095v-6.161h23.506v-40.851H-0.433v-26.01
		L75.389,0h33.302V114.162z M65.601,27.983l-56.8,86.179h56.8V27.983z"/>
	<path fill="#91824F" d="M180.537,19.864C192.01,6.723,206.563,0,224.189,0c19.583,0,35.813,8.392,46.163,20.426
		c12.315,14.28,22.664,42.248,22.664,75.542c0,21.276-3.354,48.97-17.907,69.669c-13.991,19.864-33.013,25.464-48.962,25.464
		c-12.307,0-30.494-3.354-45.328-20.426c-10.911-12.595-23.218-35.813-23.218-75.542C157.6,77.499,159.558,43.932,180.537,19.864z
		 M206.563,145.772c0,24.629,3.634,30.775,4.196,31.625c2.519,4.188,8.953,7.542,14.545,7.542c4.477,0,10.357-2.504,13.43-6.146
		c3.081-3.915,5.319-12.307,5.319-33.021V41.974c0-9.788,0-23.506-6.154-30.214c-3.361-3.642-8.673-5.6-13.43-5.6
		c-6.434,0-11.472,3.081-13.711,6.996c-0.842,1.123-4.196,7.557-4.196,27.695V145.772z"/>
	<path fill="#91824F" d="M426.435,114.162h22.383v26.01h-22.383v40.851h23.499v6.161h-90.095v-6.161h23.506v-40.851h-66.034v-26.01
		L393.141,0h33.294V114.162z M383.345,27.983l-56.8,86.179h56.8V27.983z"/>
</g>
</svg>
